# xmcd
# 
# Track frame offsets:
#     150
#     19805
#     44510
#     64165
# 
# Disc length: 1182
# 
# Revision: 0
# Processed by: cddbd v1.5.2PL0 Copyright (c) Steve Scherf et al.
# Submitted via: fre:ac v1.0.17
# 
DISCID=31049c04
DTITLE=角松敏生 - 心配/YOKOHAMA Twilight Time
DYEAR=2001
DGENRE=J-POP
TTITLE0=心配
TTITLE1=YOKOHAMA Twilight Time ～20th Anniversary Version～
TTITLE2=心配(Instrumental)
TTITLE3=YOKOHAMA Twilight Time ～20th Anniversary Version～(Instrumental)
EXTD=YEAR: 2001
EXTT0=
EXTT1=
EXTT2=
EXTT3=
PLAYORDER=
